<svg width="17" height="17" viewBox="0 0 17 17" fill="none" xmlns="http://www.w3.org/2000/svg">
<path d="M12.1593 11.4449C11.8272 11.1129 11.3768 10.9263 10.9071 10.9263C10.4375 10.9263 9.9871 11.1129 9.65497 11.4449L9.38222 11.7169C7.89774 10.4726 6.52543 9.10028 5.2811 7.6158L5.55385 7.34305C5.71836 7.17858 5.84886 6.98332 5.93789 6.76841C6.02693 6.5535 6.07275 6.32316 6.07275 6.09054C6.07275 5.85792 6.02693 5.62758 5.93789 5.41267C5.84886 5.19776 5.71836 5.0025 5.55385 4.83803L4.05055 3.33544C3.71843 3.00342 3.26803 2.81689 2.7984 2.81689C2.32877 2.81689 1.87837 3.00342 1.54624 3.33544L0.721626 4.16006C0.319849 4.56491 0.0694659 5.09558 0.0124559 5.6631C-0.0445541 6.23062 0.0952744 6.80049 0.408499 7.27717C2.86002 10.9709 6.02551 14.1372 9.71873 16.5895C10.1968 16.8987 10.7657 17.0361 11.3322 16.9792C11.8986 16.9223 12.4288 16.6744 12.8358 16.2764L13.6612 15.4518C13.9932 15.1196 14.1797 14.6692 14.1797 14.1996C14.1797 13.73 13.9932 13.2796 13.6612 12.9475L12.1593 11.4449Z" fill="#7BC242"/>
<path d="M8.14459 0C7.9567 0 7.77651 0.0746383 7.64365 0.207495C7.5108 0.340352 7.43616 0.520545 7.43616 0.708433C7.43616 0.896321 7.5108 1.07651 7.64365 1.20937C7.77651 1.34223 7.9567 1.41687 8.14459 1.41687C10.1167 1.41912 12.0074 2.20354 13.402 3.59805C14.7965 4.99256 15.5809 6.88328 15.5831 8.85542C15.5831 9.0433 15.6578 9.2235 15.7906 9.35635C15.9235 9.48921 16.1037 9.56385 16.2916 9.56385C16.4795 9.56385 16.6597 9.48921 16.7925 9.35635C16.9254 9.2235 17 9.0433 17 8.85542C16.9972 6.50768 16.0633 4.2569 14.4032 2.5968C12.7431 0.936694 10.4923 0.00281223 8.14459 0V0Z" fill="#7BC242"/>
<path d="M8.14459 4.25061C9.3654 4.25211 10.5358 4.73774 11.399 5.60098C12.2623 6.46423 12.7479 7.63461 12.7494 8.85542C12.7494 9.04331 12.824 9.2235 12.9569 9.35636C13.0898 9.48922 13.27 9.56386 13.4578 9.56386C13.6457 9.56386 13.8259 9.48922 13.9588 9.35636C14.0916 9.2235 14.1663 9.04331 14.1663 8.85542C14.1644 7.25895 13.5294 5.7284 12.4005 4.59952C11.2716 3.47064 9.74106 2.83562 8.14459 2.83374C7.9567 2.83374 7.77651 2.90838 7.64365 3.04124C7.5108 3.17409 7.43616 3.35429 7.43616 3.54217C7.43616 3.73006 7.5108 3.91025 7.64365 4.04311C7.77651 4.17597 7.9567 4.25061 8.14459 4.25061Z" fill="#7BC242"/>
<path d="M8.14459 7.08435C8.61431 7.08435 9.06479 7.27094 9.39694 7.60309C9.72908 7.93523 9.91567 8.38571 9.91567 8.85543C9.91567 9.04332 9.99031 9.22351 10.1232 9.35637C10.256 9.48922 10.4362 9.56386 10.6241 9.56386C10.812 9.56386 10.9922 9.48922 11.125 9.35637C11.2579 9.22351 11.3325 9.04332 11.3325 8.85543C11.3316 8.01022 10.9954 7.1999 10.3978 6.60224C9.80012 6.00459 8.9898 5.66842 8.14459 5.66748C7.9567 5.66748 7.77651 5.74212 7.64365 5.87498C7.5108 6.00783 7.43616 6.18803 7.43616 6.37591C7.43616 6.5638 7.5108 6.74399 7.64365 6.87685C7.77651 7.00971 7.9567 7.08435 8.14459 7.08435Z" fill="#7BC242"/>
</svg>
